<?xml version="1.0" encoding="utf-8" standalone="no"?>
<!DOCTYPE svg PUBLIC "-//W3C//DTD SVG 1.1//EN"
  "http://www.w3.org/Graphics/SVG/1.1/DTD/svg11.dtd">
<svg xmlns:xlink="http://www.w3.org/1999/xlink" width="1440pt" height="432pt" viewBox="0 0 1440 432" xmlns="http://www.w3.org/2000/svg" version="1.1">
 <metadata>
  <rdf:RDF xmlns:dc="http://purl.org/dc/elements/1.1/" xmlns:cc="http://creativecommons.org/ns#" xmlns:rdf="http://www.w3.org/1999/02/22-rdf-syntax-ns#">
   <cc:Work>
    <dc:type rdf:resource="http://purl.org/dc/dcmitype/StillImage"/>
    <dc:date>2023-12-31T20:59:07.080834</dc:date>
    <dc:format>image/svg+xml</dc:format>
    <dc:creator>
     <cc:Agent>
      <dc:title>Matplotlib v3.7.1, https://matplotlib.org/</dc:title>
     </cc:Agent>
    </dc:creator>
   </cc:Work>
  </rdf:RDF>
 </metadata>
 <defs>
  <style type="text/css">*{stroke-linejoin: round; stroke-linecap: butt}</style>
 </defs>
 <g id="figure_1">
  <g id="patch_1">
   <path d="M 0 432 
L 1440 432 
L 1440 0 
L 0 0 
z
" style="fill: #ffffff"/>
  </g>
  <g id="axes_1">
   <g id="patch_2">
    <path d="M 180 384.48 
L 1296 384.48 
L 1296 51.84 
L 180 51.84 
z
" style="fill: #eaeaf2"/>
   </g>
   <g id="matplotlib.axis_1">
    <g id="xtick_1">
     <g id="line2d_1">
      <path d="M 193.609756 384.48 
L 193.609756 51.84 
" clip-path="url(#p77a978f18d)" style="fill: none; stroke: #ffffff; stroke-linecap: round"/>
     </g>
     <g id="text_1">
      <!-- 29 -->
      <g style="fill: #262626" transform="translate(196.453428 406.214063) rotate(-90) scale(0.11 -0.11)">
       <defs>
        <path id="ArialMT-32" d="M 3222 541 
L 3222 0 
L 194 0 
Q 188 203 259 391 
Q 375 700 629 1000 
Q 884 1300 1366 1694 
Q 2113 2306 2375 2664 
Q 2638 3022 2638 3341 
Q 2638 3675 2398 3904 
Q 2159 4134 1775 4134 
Q 1369 4134 1125 3890 
Q 881 3647 878 3216 
L 300 3275 
Q 359 3922 746 4261 
Q 1134 4600 1788 4600 
Q 2447 4600 2831 4234 
Q 3216 3869 3216 3328 
Q 3216 3053 3103 2787 
Q 2991 2522 2730 2228 
Q 2469 1934 1863 1422 
Q 1356 997 1212 845 
Q 1069 694 975 541 
L 3222 541 
z
" transform="scale(0.015625)"/>
        <path id="ArialMT-39" d="M 350 1059 
L 891 1109 
Q 959 728 1153 556 
Q 1347 384 1650 384 
Q 1909 384 2104 503 
Q 2300 622 2425 820 
Q 2550 1019 2634 1356 
Q 2719 1694 2719 2044 
Q 2719 2081 2716 2156 
Q 2547 1888 2255 1720 
Q 1963 1553 1622 1553 
Q 1053 1553 659 1965 
Q 266 2378 266 3053 
Q 266 3750 677 4175 
Q 1088 4600 1706 4600 
Q 2153 4600 2523 4359 
Q 2894 4119 3086 3673 
Q 3278 3228 3278 2384 
Q 3278 1506 3087 986 
Q 2897 466 2520 194 
Q 2144 -78 1638 -78 
Q 1100 -78 759 220 
Q 419 519 350 1059 
z
M 2653 3081 
Q 2653 3566 2395 3850 
Q 2138 4134 1775 4134 
Q 1400 4134 1122 3828 
Q 844 3522 844 3034 
Q 844 2597 1108 2323 
Q 1372 2050 1759 2050 
Q 2150 2050 2401 2323 
Q 2653 2597 2653 3081 
z
" transform="scale(0.015625)"/>
       </defs>
       <use xlink:href="#ArialMT-32"/>
       <use xlink:href="#ArialMT-39" x="55.615234"/>
      </g>
     </g>
    </g>
    <g id="xtick_2">
     <g id="line2d_2">
      <path d="M 220.829268 384.48 
L 220.829268 51.84 
" clip-path="url(#p77a978f18d)" style="fill: none; stroke: #ffffff; stroke-linecap: round"/>
     </g>
     <g id="text_2">
      <!-- 34 -->
      <g style="fill: #262626" transform="translate(223.67294 406.214063) rotate(-90) scale(0.11 -0.11)">
       <defs>
        <path id="ArialMT-33" d="M 269 1209 
L 831 1284 
Q 928 806 1161 595 
Q 1394 384 1728 384 
Q 2125 384 2398 659 
Q 2672 934 2672 1341 
Q 2672 1728 2419 1979 
Q 2166 2231 1775 2231 
Q 1616 2231 1378 2169 
L 1441 2663 
Q 1497 2656 1531 2656 
Q 1891 2656 2178 2843 
Q 2466 3031 2466 3422 
Q 2466 3731 2256 3934 
Q 2047 4138 1716 4138 
Q 1388 4138 1169 3931 
Q 950 3725 888 3313 
L 325 3413 
Q 428 3978 793 4289 
Q 1159 4600 1703 4600 
Q 2078 4600 2393 4439 
Q 2709 4278 2876 4000 
Q 3044 3722 3044 3409 
Q 3044 3113 2884 2869 
Q 2725 2625 2413 2481 
Q 2819 2388 3044 2092 
Q 3269 1797 3269 1353 
Q 3269 753 2831 336 
Q 2394 -81 1725 -81 
Q 1122 -81 723 278 
Q 325 638 269 1209 
z
" transform="scale(0.015625)"/>
        <path id="ArialMT-34" d="M 2069 0 
L 2069 1097 
L 81 1097 
L 81 1613 
L 2172 4581 
L 2631 4581 
L 2631 1613 
L 3250 1613 
L 3250 1097 
L 2631 1097 
L 2631 0 
L 2069 0 
z
M 2069 1613 
L 2069 3678 
L 634 1613 
L 2069 1613 
z
" transform="scale(0.015625)"/>
       </defs>
       <use xlink:href="#ArialMT-33"/>
       <use xlink:href="#ArialMT-34" x="55.615234"/>
      </g>
     </g>
    </g>
    <g id="xtick_3">
     <g id="line2d_3">
      <path d="M 248.04878 384.48 
L 248.04878 51.84 
" clip-path="url(#p77a978f18d)" style="fill: none; stroke: #ffffff; stroke-linecap: round"/>
     </g>
     <g id="text_3">
      <!-- 35 -->
      <g style="fill: #262626" transform="translate(250.892452 406.214063) rotate(-90) scale(0.11 -0.11)">
       <defs>
        <path id="ArialMT-35" d="M 266 1200 
L 856 1250 
Q 922 819 1161 601 
Q 1400 384 1738 384 
Q 2144 384 2425 690 
Q 2706 997 2706 1503 
Q 2706 1984 2436 2262 
Q 2166 2541 1728 2541 
Q 1456 2541 1237 2417 
Q 1019 2294 894 2097 
L 366 2166 
L 809 4519 
L 3088 4519 
L 3088 3981 
L 1259 3981 
L 1013 2750 
Q 1425 3038 1878 3038 
Q 2478 3038 2890 2622 
Q 3303 2206 3303 1553 
Q 3303 931 2941 478 
Q 2500 -78 1738 -78 
Q 1113 -78 717 272 
Q 322 622 266 1200 
z
" transform="scale(0.015625)"/>
       </defs>
       <use xlink:href="#ArialMT-33"/>
       <use xlink:href="#ArialMT-35" x="55.615234"/>
      </g>
     </g>
    </g>
    <g id="xtick_4">
     <g id="line2d_4">
      <path d="M 275.268293 384.48 
L 275.268293 51.84 
" clip-path="url(#p77a978f18d)" style="fill: none; stroke: #ffffff; stroke-linecap: round"/>
     </g>
     <g id="text_4">
      <!-- 37 -->
      <g style="fill: #262626" transform="translate(278.111965 406.214063) rotate(-90) scale(0.11 -0.11)">
       <defs>
        <path id="ArialMT-37" d="M 303 3981 
L 303 4522 
L 3269 4522 
L 3269 4084 
Q 2831 3619 2401 2847 
Q 1972 2075 1738 1259 
Q 1569 684 1522 0 
L 944 0 
Q 953 541 1156 1306 
Q 1359 2072 1739 2783 
Q 2119 3494 2547 3981 
L 303 3981 
z
" transform="scale(0.015625)"/>
       </defs>
       <use xlink:href="#ArialMT-33"/>
       <use xlink:href="#ArialMT-37" x="55.615234"/>
      </g>
     </g>
    </g>
    <g id="xtick_5">
     <g id="line2d_5">
      <path d="M 302.487805 384.48 
L 302.487805 51.84 
" clip-path="url(#p77a978f18d)" style="fill: none; stroke: #ffffff; stroke-linecap: round"/>
     </g>
     <g id="text_5">
      <!-- 38 -->
      <g style="fill: #262626" transform="translate(305.331477 406.214063) rotate(-90) scale(0.11 -0.11)">
       <defs>
        <path id="ArialMT-38" d="M 1131 2484 
Q 781 2613 612 2850 
Q 444 3088 444 3419 
Q 444 3919 803 4259 
Q 1163 4600 1759 4600 
Q 2359 4600 2725 4251 
Q 3091 3903 3091 3403 
Q 3091 3084 2923 2848 
Q 2756 2613 2416 2484 
Q 2838 2347 3058 2040 
Q 3278 1734 3278 1309 
Q 3278 722 2862 322 
Q 2447 -78 1769 -78 
Q 1091 -78 675 323 
Q 259 725 259 1325 
Q 259 1772 486 2073 
Q 713 2375 1131 2484 
z
M 1019 3438 
Q 1019 3113 1228 2906 
Q 1438 2700 1772 2700 
Q 2097 2700 2305 2904 
Q 2513 3109 2513 3406 
Q 2513 3716 2298 3927 
Q 2084 4138 1766 4138 
Q 1444 4138 1231 3931 
Q 1019 3725 1019 3438 
z
M 838 1322 
Q 838 1081 952 856 
Q 1066 631 1291 507 
Q 1516 384 1775 384 
Q 2178 384 2440 643 
Q 2703 903 2703 1303 
Q 2703 1709 2433 1975 
Q 2163 2241 1756 2241 
Q 1359 2241 1098 1978 
Q 838 1716 838 1322 
z
" transform="scale(0.015625)"/>
       </defs>
       <use xlink:href="#ArialMT-33"/>
       <use xlink:href="#ArialMT-38" x="55.615234"/>
      </g>
     </g>
    </g>
    <g id="xtick_6">
     <g id="line2d_6">
      <path d="M 329.707317 384.48 
L 329.707317 51.84 
" clip-path="url(#p77a978f18d)" style="fill: none; stroke: #ffffff; stroke-linecap: round"/>
     </g>
     <g id="text_6">
      <!-- 39 -->
      <g style="fill: #262626" transform="translate(332.550989 406.214063) rotate(-90) scale(0.11 -0.11)">
       <use xlink:href="#ArialMT-33"/>
       <use xlink:href="#ArialMT-39" x="55.615234"/>
      </g>
     </g>
    </g>
    <g id="xtick_7">
     <g id="line2d_7">
      <path d="M 356.926829 384.48 
L 356.926829 51.84 
" clip-path="url(#p77a978f18d)" style="fill: none; stroke: #ffffff; stroke-linecap: round"/>
     </g>
     <g id="text_7">
      <!-- 40 -->
      <g style="fill: #262626" transform="translate(359.770501 406.214063) rotate(-90) scale(0.11 -0.11)">
       <defs>
        <path id="ArialMT-30" d="M 266 2259 
Q 266 3072 433 3567 
Q 600 4063 929 4331 
Q 1259 4600 1759 4600 
Q 2128 4600 2406 4451 
Q 2684 4303 2865 4023 
Q 3047 3744 3150 3342 
Q 3253 2941 3253 2259 
Q 3253 1453 3087 958 
Q 2922 463 2592 192 
Q 2263 -78 1759 -78 
Q 1097 -78 719 397 
Q 266 969 266 2259 
z
M 844 2259 
Q 844 1131 1108 757 
Q 1372 384 1759 384 
Q 2147 384 2411 759 
Q 2675 1134 2675 2259 
Q 2675 3391 2411 3762 
Q 2147 4134 1753 4134 
Q 1366 4134 1134 3806 
Q 844 3388 844 2259 
z
" transform="scale(0.015625)"/>
       </defs>
       <use xlink:href="#ArialMT-34"/>
       <use xlink:href="#ArialMT-30" x="55.615234"/>
      </g>
     </g>
    </g>
    <g id="xtick_8">
     <g id="line2d_8">
      <path d="M 384.146341 384.48 
L 384.146341 51.84 
" clip-path="url(#p77a978f18d)" style="fill: none; stroke: #ffffff; stroke-linecap: round"/>
     </g>
     <g id="text_8">
      <!-- 41 -->
      <g style="fill: #262626" transform="translate(386.990013 406.214063) rotate(-90) scale(0.11 -0.11)">
       <defs>
        <path id="ArialMT-31" d="M 2384 0 
L 1822 0 
L 1822 3584 
Q 1619 3391 1289 3197 
Q 959 3003 697 2906 
L 697 3450 
Q 1169 3672 1522 3987 
Q 1875 4303 2022 4600 
L 2384 4600 
L 2384 0 
z
" transform="scale(0.015625)"/>
       </defs>
       <use xlink:href="#ArialMT-34"/>
       <use xlink:href="#ArialMT-31" x="55.615234"/>
      </g>
     </g>
    </g>
    <g id="xtick_9">
     <g id="line2d_9">
      <path d="M 411.365854 384.48 
L 411.365854 51.84 
" clip-path="url(#p77a978f18d)" style="fill: none; stroke: #ffffff; stroke-linecap: round"/>
     </g>
     <g id="text_9">
      <!-- 42 -->
      <g style="fill: #262626" transform="translate(414.209526 406.214063) rotate(-90) scale(0.11 -0.11)">
       <use xlink:href="#ArialMT-34"/>
       <use xlink:href="#ArialMT-32" x="55.615234"/>
      </g>
     </g>
    </g>
    <g id="xtick_10">
     <g id="line2d_10">
      <path d="M 438.585366 384.48 
L 438.585366 51.84 
" clip-path="url(#p77a978f18d)" style="fill: none; stroke: #ffffff; stroke-linecap: round"/>
     </g>
     <g id="text_10">
      <!-- 43 -->
      <g style="fill: #262626" transform="translate(441.429038 406.214063) rotate(-90) scale(0.11 -0.11)">
       <use xlink:href="#ArialMT-34"/>
       <use xlink:href="#ArialMT-33" x="55.615234"/>
      </g>
     </g>
    </g>
    <g id="xtick_11">
     <g id="line2d_11">
      <path d="M 465.804878 384.48 
L 465.804878 51.84 
" clip-path="url(#p77a978f18d)" style="fill: none; stroke: #ffffff; stroke-linecap: round"/>
     </g>
     <g id="text_11">
      <!-- 44 -->
      <g style="fill: #262626" transform="translate(468.64855 406.214063) rotate(-90) scale(0.11 -0.11)">
       <use xlink:href="#ArialMT-34"/>
       <use xlink:href="#ArialMT-34" x="55.615234"/>
      </g>
     </g>
    </g>
    <g id="xtick_12">
     <g id="line2d_12">
      <path d="M 493.02439 384.48 
L 493.02439 51.84 
" clip-path="url(#p77a978f18d)" style="fill: none; stroke: #ffffff; stroke-linecap: round"/>
     </g>
     <g id="text_12">
      <!-- 45 -->
      <g style="fill: #262626" transform="translate(495.868062 406.214063) rotate(-90) scale(0.11 -0.11)">
       <use xlink:href="#ArialMT-34"/>
       <use xlink:href="#ArialMT-35" x="55.615234"/>
      </g>
     </g>
    </g>
    <g id="xtick_13">
     <g id="line2d_13">
      <path d="M 520.243902 384.48 
L 520.243902 51.84 
" clip-path="url(#p77a978f18d)" style="fill: none; stroke: #ffffff; stroke-linecap: round"/>
     </g>
     <g id="text_13">
      <!-- 46 -->
      <g style="fill: #262626" transform="translate(523.087574 406.214063) rotate(-90) scale(0.11 -0.11)">
       <defs>
        <path id="ArialMT-36" d="M 3184 3459 
L 2625 3416 
Q 2550 3747 2413 3897 
Q 2184 4138 1850 4138 
Q 1581 4138 1378 3988 
Q 1113 3794 959 3422 
Q 806 3050 800 2363 
Q 1003 2672 1297 2822 
Q 1591 2972 1913 2972 
Q 2475 2972 2870 2558 
Q 3266 2144 3266 1488 
Q 3266 1056 3080 686 
Q 2894 316 2569 119 
Q 2244 -78 1831 -78 
Q 1128 -78 684 439 
Q 241 956 241 2144 
Q 241 3472 731 4075 
Q 1159 4600 1884 4600 
Q 2425 4600 2770 4297 
Q 3116 3994 3184 3459 
z
M 888 1484 
Q 888 1194 1011 928 
Q 1134 663 1356 523 
Q 1578 384 1822 384 
Q 2178 384 2434 671 
Q 2691 959 2691 1453 
Q 2691 1928 2437 2201 
Q 2184 2475 1800 2475 
Q 1419 2475 1153 2201 
Q 888 1928 888 1484 
z
" transform="scale(0.015625)"/>
       </defs>
       <use xlink:href="#ArialMT-34"/>
       <use xlink:href="#ArialMT-36" x="55.615234"/>
      </g>
     </g>
    </g>
    <g id="xtick_14">
     <g id="line2d_14">
      <path d="M 547.463415 384.48 
L 547.463415 51.84 
" clip-path="url(#p77a978f18d)" style="fill: none; stroke: #ffffff; stroke-linecap: round"/>
     </g>
     <g id="text_14">
      <!-- 47 -->
      <g style="fill: #262626" transform="translate(550.307087 406.214063) rotate(-90) scale(0.11 -0.11)">
       <use xlink:href="#ArialMT-34"/>
       <use xlink:href="#ArialMT-37" x="55.615234"/>
      </g>
     </g>
    </g>
    <g id="xtick_15">
     <g id="line2d_15">
      <path d="M 574.682927 384.48 
L 574.682927 51.84 
" clip-path="url(#p77a978f18d)" style="fill: none; stroke: #ffffff; stroke-linecap: round"/>
     </g>
     <g id="text_15">
      <!-- 48 -->
      <g style="fill: #262626" transform="translate(577.526599 406.214063) rotate(-90) scale(0.11 -0.11)">
       <use xlink:href="#ArialMT-34"/>
       <use xlink:href="#ArialMT-38" x="55.615234"/>
      </g>
     </g>
    </g>
    <g id="xtick_16">
     <g id="line2d_16">
      <path d="M 601.902439 384.48 
L 601.902439 51.84 
" clip-path="url(#p77a978f18d)" style="fill: none; stroke: #ffffff; stroke-linecap: round"/>
     </g>
     <g id="text_16">
      <!-- 49 -->
      <g style="fill: #262626" transform="translate(604.746111 406.214063) rotate(-90) scale(0.11 -0.11)">
       <use xlink:href="#ArialMT-34"/>
       <use xlink:href="#ArialMT-39" x="55.615234"/>
      </g>
     </g>
    </g>
    <g id="xtick_17">
     <g id="line2d_17">
      <path d="M 629.121951 384.48 
L 629.121951 51.84 
" clip-path="url(#p77a978f18d)" style="fill: none; stroke: #ffffff; stroke-linecap: round"/>
     </g>
     <g id="text_17">
      <!-- 50 -->
      <g style="fill: #262626" transform="translate(631.965623 406.214063) rotate(-90) scale(0.11 -0.11)">
       <use xlink:href="#ArialMT-35"/>
       <use xlink:href="#ArialMT-30" x="55.615234"/>
      </g>
     </g>
    </g>
    <g id="xtick_18">
     <g id="line2d_18">
      <path d="M 656.341463 384.48 
L 656.341463 51.84 
" clip-path="url(#p77a978f18d)" style="fill: none; stroke: #ffffff; stroke-linecap: round"/>
     </g>
     <g id="text_18">
      <!-- 51 -->
      <g style="fill: #262626" transform="translate(659.185135 406.214063) rotate(-90) scale(0.11 -0.11)">
       <use xlink:href="#ArialMT-35"/>
       <use xlink:href="#ArialMT-31" x="55.615234"/>
      </g>
     </g>
    </g>
    <g id="xtick_19">
     <g id="line2d_19">
      <path d="M 683.560976 384.48 
L 683.560976 51.84 
" clip-path="url(#p77a978f18d)" style="fill: none; stroke: #ffffff; stroke-linecap: round"/>
     </g>
     <g id="text_19">
      <!-- 52 -->
      <g style="fill: #262626" transform="translate(686.404647 406.214063) rotate(-90) scale(0.11 -0.11)">
       <use xlink:href="#ArialMT-35"/>
       <use xlink:href="#ArialMT-32" x="55.615234"/>
      </g>
     </g>
    </g>
    <g id="xtick_20">
     <g id="line2d_20">
      <path d="M 710.780488 384.48 
L 710.780488 51.84 
" clip-path="url(#p77a978f18d)" style="fill: none; stroke: #ffffff; stroke-linecap: round"/>
     </g>
     <g id="text_20">
      <!-- 53 -->
      <g style="fill: #262626" transform="translate(713.62416 406.214063) rotate(-90) scale(0.11 -0.11)">
       <use xlink:href="#ArialMT-35"/>
       <use xlink:href="#ArialMT-33" x="55.615234"/>
      </g>
     </g>
    </g>
    <g id="xtick_21">
     <g id="line2d_21">
      <path d="M 738 384.48 
L 738 51.84 
" clip-path="url(#p77a978f18d)" style="fill: none; stroke: #ffffff; stroke-linecap: round"/>
     </g>
     <g id="text_21">
      <!-- 54 -->
      <g style="fill: #262626" transform="translate(740.843672 406.214063) rotate(-90) scale(0.11 -0.11)">
       <use xlink:href="#ArialMT-35"/>
       <use xlink:href="#ArialMT-34" x="55.615234"/>
      </g>
     </g>
    </g>
    <g id="xtick_22">
     <g id="line2d_22">
      <path d="M 765.219512 384.48 
L 765.219512 51.84 
" clip-path="url(#p77a978f18d)" style="fill: none; stroke: #ffffff; stroke-linecap: round"/>
     </g>
     <g id="text_22">
      <!-- 55 -->
      <g style="fill: #262626" transform="translate(768.063184 406.214063) rotate(-90) scale(0.11 -0.11)">
       <use xlink:href="#ArialMT-35"/>
       <use xlink:href="#ArialMT-35" x="55.615234"/>
      </g>
     </g>
    </g>
    <g id="xtick_23">
     <g id="line2d_23">
      <path d="M 792.439024 384.48 
L 792.439024 51.84 
" clip-path="url(#p77a978f18d)" style="fill: none; stroke: #ffffff; stroke-linecap: round"/>
     </g>
     <g id="text_23">
      <!-- 56 -->
      <g style="fill: #262626" transform="translate(795.282696 406.214063) rotate(-90) scale(0.11 -0.11)">
       <use xlink:href="#ArialMT-35"/>
       <use xlink:href="#ArialMT-36" x="55.615234"/>
      </g>
     </g>
    </g>
    <g id="xtick_24">
     <g id="line2d_24">
      <path d="M 819.658537 384.48 
L 819.658537 51.84 
" clip-path="url(#p77a978f18d)" style="fill: none; stroke: #ffffff; stroke-linecap: round"/>
     </g>
     <g id="text_24">
      <!-- 57 -->
      <g style="fill: #262626" transform="translate(822.502208 406.214063) rotate(-90) scale(0.11 -0.11)">
       <use xlink:href="#ArialMT-35"/>
       <use xlink:href="#ArialMT-37" x="55.615234"/>
      </g>
     </g>
    </g>
    <g id="xtick_25">
     <g id="line2d_25">
      <path d="M 846.878049 384.48 
L 846.878049 51.84 
" clip-path="url(#p77a978f18d)" style="fill: none; stroke: #ffffff; stroke-linecap: round"/>
     </g>
     <g id="text_25">
      <!-- 58 -->
      <g style="fill: #262626" transform="translate(849.721721 406.214063) rotate(-90) scale(0.11 -0.11)">
       <use xlink:href="#ArialMT-35"/>
       <use xlink:href="#ArialMT-38" x="55.615234"/>
      </g>
     </g>
    </g>
    <g id="xtick_26">
     <g id="line2d_26">
      <path d="M 874.097561 384.48 
L 874.097561 51.84 
" clip-path="url(#p77a978f18d)" style="fill: none; stroke: #ffffff; stroke-linecap: round"/>
     </g>
     <g id="text_26">
      <!-- 59 -->
      <g style="fill: #262626" transform="translate(876.941233 406.214063) rotate(-90) scale(0.11 -0.11)">
       <use xlink:href="#ArialMT-35"/>
       <use xlink:href="#ArialMT-39" x="55.615234"/>
      </g>
     </g>
    </g>
    <g id="xtick_27">
     <g id="line2d_27">
      <path d="M 901.317073 384.48 
L 901.317073 51.84 
" clip-path="url(#p77a978f18d)" style="fill: none; stroke: #ffffff; stroke-linecap: round"/>
     </g>
     <g id="text_27">
      <!-- 60 -->
      <g style="fill: #262626" transform="translate(904.160745 406.214063) rotate(-90) scale(0.11 -0.11)">
       <use xlink:href="#ArialMT-36"/>
       <use xlink:href="#ArialMT-30" x="55.615234"/>
      </g>
     </g>
    </g>
    <g id="xtick_28">
     <g id="line2d_28">
      <path d="M 928.536585 384.48 
L 928.536585 51.84 
" clip-path="url(#p77a978f18d)" style="fill: none; stroke: #ffffff; stroke-linecap: round"/>
     </g>
     <g id="text_28">
      <!-- 61 -->
      <g style="fill: #262626" transform="translate(931.380257 406.214063) rotate(-90) scale(0.11 -0.11)">
       <use xlink:href="#ArialMT-36"/>
       <use xlink:href="#ArialMT-31" x="55.615234"/>
      </g>
     </g>
    </g>
    <g id="xtick_29">
     <g id="line2d_29">
      <path d="M 955.756098 384.48 
L 955.756098 51.84 
" clip-path="url(#p77a978f18d)" style="fill: none; stroke: #ffffff; stroke-linecap: round"/>
     </g>
     <g id="text_29">
      <!-- 62 -->
      <g style="fill: #262626" transform="translate(958.599769 406.214063) rotate(-90) scale(0.11 -0.11)">
       <use xlink:href="#ArialMT-36"/>
       <use xlink:href="#ArialMT-32" x="55.615234"/>
      </g>
     </g>
    </g>
    <g id="xtick_30">
     <g id="line2d_30">
      <path d="M 982.97561 384.48 
L 982.97561 51.84 
" clip-path="url(#p77a978f18d)" style="fill: none; stroke: #ffffff; stroke-linecap: round"/>
     </g>
     <g id="text_30">
      <!-- 63 -->
      <g style="fill: #262626" transform="translate(985.819282 406.214063) rotate(-90) scale(0.11 -0.11)">
       <use xlink:href="#ArialMT-36"/>
       <use xlink:href="#ArialMT-33" x="55.615234"/>
      </g>
     </g>
    </g>
    <g id="xtick_31">
     <g id="line2d_31">
      <path d="M 1010.195122 384.48 
L 1010.195122 51.84 
" clip-path="url(#p77a978f18d)" style="fill: none; stroke: #ffffff; stroke-linecap: round"/>
     </g>
     <g id="text_31">
      <!-- 64 -->
      <g style="fill: #262626" transform="translate(1013.038794 406.214063) rotate(-90) scale(0.11 -0.11)">
       <use xlink:href="#ArialMT-36"/>
       <use xlink:href="#ArialMT-34" x="55.615234"/>
      </g>
     </g>
    </g>
    <g id="xtick_32">
     <g id="line2d_32">
      <path d="M 1037.414634 384.48 
L 1037.414634 51.84 
" clip-path="url(#p77a978f18d)" style="fill: none; stroke: #ffffff; stroke-linecap: round"/>
     </g>
     <g id="text_32">
      <!-- 65 -->
      <g style="fill: #262626" transform="translate(1040.258306 406.214063) rotate(-90) scale(0.11 -0.11)">
       <use xlink:href="#ArialMT-36"/>
       <use xlink:href="#ArialMT-35" x="55.615234"/>
      </g>
     </g>
    </g>
    <g id="xtick_33">
     <g id="line2d_33">
      <path d="M 1064.634146 384.48 
L 1064.634146 51.84 
" clip-path="url(#p77a978f18d)" style="fill: none; stroke: #ffffff; stroke-linecap: round"/>
     </g>
     <g id="text_33">
      <!-- 66 -->
      <g style="fill: #262626" transform="translate(1067.477818 406.214063) rotate(-90) scale(0.11 -0.11)">
       <use xlink:href="#ArialMT-36"/>
       <use xlink:href="#ArialMT-36" x="55.615234"/>
      </g>
     </g>
    </g>
    <g id="xtick_34">
     <g id="line2d_34">
      <path d="M 1091.853659 384.48 
L 1091.853659 51.84 
" clip-path="url(#p77a978f18d)" style="fill: none; stroke: #ffffff; stroke-linecap: round"/>
     </g>
     <g id="text_34">
      <!-- 67 -->
      <g style="fill: #262626" transform="translate(1094.69733 406.214063) rotate(-90) scale(0.11 -0.11)">
       <use xlink:href="#ArialMT-36"/>
       <use xlink:href="#ArialMT-37" x="55.615234"/>
      </g>
     </g>
    </g>
    <g id="xtick_35">
     <g id="line2d_35">
      <path d="M 1119.073171 384.48 
L 1119.073171 51.84 
" clip-path="url(#p77a978f18d)" style="fill: none; stroke: #ffffff; stroke-linecap: round"/>
     </g>
     <g id="text_35">
      <!-- 68 -->
      <g style="fill: #262626" transform="translate(1121.916843 406.214063) rotate(-90) scale(0.11 -0.11)">
       <use xlink:href="#ArialMT-36"/>
       <use xlink:href="#ArialMT-38" x="55.615234"/>
      </g>
     </g>
    </g>
    <g id="xtick_36">
     <g id="line2d_36">
      <path d="M 1146.292683 384.48 
L 1146.292683 51.84 
" clip-path="url(#p77a978f18d)" style="fill: none; stroke: #ffffff; stroke-linecap: round"/>
     </g>
     <g id="text_36">
      <!-- 69 -->
      <g style="fill: #262626" transform="translate(1149.136355 406.214063) rotate(-90) scale(0.11 -0.11)">
       <use xlink:href="#ArialMT-36"/>
       <use xlink:href="#ArialMT-39" x="55.615234"/>
      </g>
     </g>
    </g>
    <g id="xtick_37">
     <g id="line2d_37">
      <path d="M 1173.512195 384.48 
L 1173.512195 51.84 
" clip-path="url(#p77a978f18d)" style="fill: none; stroke: #ffffff; stroke-linecap: round"/>
     </g>
     <g id="text_37">
      <!-- 70 -->
      <g style="fill: #262626" transform="translate(1176.355867 406.214063) rotate(-90) scale(0.11 -0.11)">
       <use xlink:href="#ArialMT-37"/>
       <use xlink:href="#ArialMT-30" x="55.615234"/>
      </g>
     </g>
    </g>
    <g id="xtick_38">
     <g id="line2d_38">
      <path d="M 1200.731707 384.48 
L 1200.731707 51.84 
" clip-path="url(#p77a978f18d)" style="fill: none; stroke: #ffffff; stroke-linecap: round"/>
     </g>
     <g id="text_38">
      <!-- 71 -->
      <g style="fill: #262626" transform="translate(1203.575379 406.214063) rotate(-90) scale(0.11 -0.11)">
       <use xlink:href="#ArialMT-37"/>
       <use xlink:href="#ArialMT-31" x="55.615234"/>
      </g>
     </g>
    </g>
    <g id="xtick_39">
     <g id="line2d_39">
      <path d="M 1227.95122 384.48 
L 1227.95122 51.84 
" clip-path="url(#p77a978f18d)" style="fill: none; stroke: #ffffff; stroke-linecap: round"/>
     </g>
     <g id="text_39">
      <!-- 74 -->
      <g style="fill: #262626" transform="translate(1230.794891 406.214063) rotate(-90) scale(0.11 -0.11)">
       <use xlink:href="#ArialMT-37"/>
       <use xlink:href="#ArialMT-34" x="55.615234"/>
      </g>
     </g>
    </g>
    <g id="xtick_40">
     <g id="line2d_40">
      <path d="M 1255.170732 384.48 
L 1255.170732 51.84 
" clip-path="url(#p77a978f18d)" style="fill: none; stroke: #ffffff; stroke-linecap: round"/>
     </g>
     <g id="text_40">
      <!-- 76 -->
      <g style="fill: #262626" transform="translate(1258.014404 406.214063) rotate(-90) scale(0.11 -0.11)">
       <use xlink:href="#ArialMT-37"/>
       <use xlink:href="#ArialMT-36" x="55.615234"/>
      </g>
     </g>
    </g>
    <g id="xtick_41">
     <g id="line2d_41">
      <path d="M 1282.390244 384.48 
L 1282.390244 51.84 
" clip-path="url(#p77a978f18d)" style="fill: none; stroke: #ffffff; stroke-linecap: round"/>
     </g>
     <g id="text_41">
      <!-- 77 -->
      <g style="fill: #262626" transform="translate(1285.233916 406.214063) rotate(-90) scale(0.11 -0.11)">
       <use xlink:href="#ArialMT-37"/>
       <use xlink:href="#ArialMT-37" x="55.615234"/>
      </g>
     </g>
    </g>
    <g id="text_42">
     <!-- Age -->
     <g style="fill: #262626" transform="translate(724.655859 420.950781) scale(0.15 -0.15)">
      <defs>
       <path id="ArialMT-41" d="M -9 0 
L 1750 4581 
L 2403 4581 
L 4278 0 
L 3588 0 
L 3053 1388 
L 1138 1388 
L 634 0 
L -9 0 
z
M 1313 1881 
L 2866 1881 
L 2388 3150 
Q 2169 3728 2063 4100 
Q 1975 3659 1816 3225 
L 1313 1881 
z
" transform="scale(0.015625)"/>
       <path id="ArialMT-67" d="M 319 -275 
L 866 -356 
Q 900 -609 1056 -725 
Q 1266 -881 1628 -881 
Q 2019 -881 2231 -725 
Q 2444 -569 2519 -288 
Q 2563 -116 2559 434 
Q 2191 0 1641 0 
Q 956 0 581 494 
Q 206 988 206 1678 
Q 206 2153 378 2554 
Q 550 2956 876 3175 
Q 1203 3394 1644 3394 
Q 2231 3394 2613 2919 
L 2613 3319 
L 3131 3319 
L 3131 450 
Q 3131 -325 2973 -648 
Q 2816 -972 2473 -1159 
Q 2131 -1347 1631 -1347 
Q 1038 -1347 672 -1080 
Q 306 -813 319 -275 
z
M 784 1719 
Q 784 1066 1043 766 
Q 1303 466 1694 466 
Q 2081 466 2343 764 
Q 2606 1063 2606 1700 
Q 2606 2309 2336 2618 
Q 2066 2928 1684 2928 
Q 1309 2928 1046 2623 
Q 784 2319 784 1719 
z
" transform="scale(0.015625)"/>
       <path id="ArialMT-65" d="M 2694 1069 
L 3275 997 
Q 3138 488 2766 206 
Q 2394 -75 1816 -75 
Q 1088 -75 661 373 
Q 234 822 234 1631 
Q 234 2469 665 2931 
Q 1097 3394 1784 3394 
Q 2450 3394 2872 2941 
Q 3294 2488 3294 1666 
Q 3294 1616 3291 1516 
L 816 1516 
Q 847 969 1125 678 
Q 1403 388 1819 388 
Q 2128 388 2347 550 
Q 2566 713 2694 1069 
z
M 847 1978 
L 2700 1978 
Q 2663 2397 2488 2606 
Q 2219 2931 1791 2931 
Q 1403 2931 1139 2672 
Q 875 2413 847 1978 
z
" transform="scale(0.015625)"/>
      </defs>
      <use xlink:href="#ArialMT-41"/>
      <use xlink:href="#ArialMT-67" x="66.699219"/>
      <use xlink:href="#ArialMT-65" x="122.314453"/>
     </g>
    </g>
   </g>
   <g id="matplotlib.axis_2">
    <g id="ytick_1">
     <g id="line2d_42">
      <path d="M 180 384.48 
L 1296 384.48 
" clip-path="url(#p77a978f18d)" style="fill: none; stroke: #ffffff; stroke-linecap: round"/>
     </g>
     <g id="text_43">
      <!-- 0 -->
      <g style="fill: #262626" transform="translate(164.382969 388.416797) scale(0.11 -0.11)">
       <use xlink:href="#ArialMT-30"/>
      </g>
     </g>
    </g>
    <g id="ytick_2">
     <g id="line2d_43">
      <path d="M 180 331.68 
L 1296 331.68 
" clip-path="url(#p77a978f18d)" style="fill: none; stroke: #ffffff; stroke-linecap: round"/>
     </g>
     <g id="text_44">
      <!-- 2 -->
      <g style="fill: #262626" transform="translate(164.382969 335.616797) scale(0.11 -0.11)">
       <use xlink:href="#ArialMT-32"/>
      </g>
     </g>
    </g>
    <g id="ytick_3">
     <g id="line2d_44">
      <path d="M 180 278.88 
L 1296 278.88 
" clip-path="url(#p77a978f18d)" style="fill: none; stroke: #ffffff; stroke-linecap: round"/>
     </g>
     <g id="text_45">
      <!-- 4 -->
      <g style="fill: #262626" transform="translate(164.382969 282.816797) scale(0.11 -0.11)">
       <use xlink:href="#ArialMT-34"/>
      </g>
     </g>
    </g>
    <g id="ytick_4">
     <g id="line2d_45">
      <path d="M 180 226.08 
L 1296 226.08 
" clip-path="url(#p77a978f18d)" style="fill: none; stroke: #ffffff; stroke-linecap: round"/>
     </g>
     <g id="text_46">
      <!-- 6 -->
      <g style="fill: #262626" transform="translate(164.382969 230.016797) scale(0.11 -0.11)">
       <use xlink:href="#ArialMT-36"/>
      </g>
     </g>
    </g>
    <g id="ytick_5">
     <g id="line2d_46">
      <path d="M 180 173.28 
L 1296 173.28 
" clip-path="url(#p77a978f18d)" style="fill: none; stroke: #ffffff; stroke-linecap: round"/>
     </g>
     <g id="text_47">
      <!-- 8 -->
      <g style="fill: #262626" transform="translate(164.382969 177.216797) scale(0.11 -0.11)">
       <use xlink:href="#ArialMT-38"/>
      </g>
     </g>
    </g>
    <g id="ytick_6">
     <g id="line2d_47">
      <path d="M 180 120.48 
L 1296 120.48 
" clip-path="url(#p77a978f18d)" style="fill: none; stroke: #ffffff; stroke-linecap: round"/>
     </g>
     <g id="text_48">
      <!-- 10 -->
      <g style="fill: #262626" transform="translate(158.265938 124.416797) scale(0.11 -0.11)">
       <use xlink:href="#ArialMT-31"/>
       <use xlink:href="#ArialMT-30" x="55.615234"/>
      </g>
     </g>
    </g>
    <g id="ytick_7">
     <g id="line2d_48">
      <path d="M 180 67.68 
L 1296 67.68 
" clip-path="url(#p77a978f18d)" style="fill: none; stroke: #ffffff; stroke-linecap: round"/>
     </g>
     <g id="text_49">
      <!-- 12 -->
      <g style="fill: #262626" transform="translate(158.265938 71.616797) scale(0.11 -0.11)">
       <use xlink:href="#ArialMT-31"/>
       <use xlink:href="#ArialMT-32" x="55.615234"/>
      </g>
     </g>
    </g>
    <g id="text_50">
     <!-- Frequency -->
     <g style="fill: #262626" transform="translate(151.108906 253.591641) rotate(-90) scale(0.15 -0.15)">
      <defs>
       <path id="ArialMT-46" d="M 525 0 
L 525 4581 
L 3616 4581 
L 3616 4041 
L 1131 4041 
L 1131 2622 
L 3281 2622 
L 3281 2081 
L 1131 2081 
L 1131 0 
L 525 0 
z
" transform="scale(0.015625)"/>
       <path id="ArialMT-72" d="M 416 0 
L 416 3319 
L 922 3319 
L 922 2816 
Q 1116 3169 1280 3281 
Q 1444 3394 1641 3394 
Q 1925 3394 2219 3213 
L 2025 2691 
Q 1819 2813 1613 2813 
Q 1428 2813 1281 2702 
Q 1134 2591 1072 2394 
Q 978 2094 978 1738 
L 978 0 
L 416 0 
z
" transform="scale(0.015625)"/>
       <path id="ArialMT-71" d="M 2538 -1272 
L 2538 353 
Q 2406 169 2170 47 
Q 1934 -75 1669 -75 
Q 1078 -75 651 397 
Q 225 869 225 1691 
Q 225 2191 398 2587 
Q 572 2984 901 3189 
Q 1231 3394 1625 3394 
Q 2241 3394 2594 2875 
L 2594 3319 
L 3100 3319 
L 3100 -1272 
L 2538 -1272 
z
M 803 1669 
Q 803 1028 1072 708 
Q 1341 388 1716 388 
Q 2075 388 2334 692 
Q 2594 997 2594 1619 
Q 2594 2281 2320 2615 
Q 2047 2950 1678 2950 
Q 1313 2950 1058 2639 
Q 803 2328 803 1669 
z
" transform="scale(0.015625)"/>
       <path id="ArialMT-75" d="M 2597 0 
L 2597 488 
Q 2209 -75 1544 -75 
Q 1250 -75 995 37 
Q 741 150 617 320 
Q 494 491 444 738 
Q 409 903 409 1263 
L 409 3319 
L 972 3319 
L 972 1478 
Q 972 1038 1006 884 
Q 1059 663 1231 536 
Q 1403 409 1656 409 
Q 1909 409 2131 539 
Q 2353 669 2445 892 
Q 2538 1116 2538 1541 
L 2538 3319 
L 3100 3319 
L 3100 0 
L 2597 0 
z
" transform="scale(0.015625)"/>
       <path id="ArialMT-6e" d="M 422 0 
L 422 3319 
L 928 3319 
L 928 2847 
Q 1294 3394 1984 3394 
Q 2284 3394 2536 3286 
Q 2788 3178 2913 3003 
Q 3038 2828 3088 2588 
Q 3119 2431 3119 2041 
L 3119 0 
L 2556 0 
L 2556 2019 
Q 2556 2363 2490 2533 
Q 2425 2703 2258 2804 
Q 2091 2906 1866 2906 
Q 1506 2906 1245 2678 
Q 984 2450 984 1813 
L 984 0 
L 422 0 
z
" transform="scale(0.015625)"/>
       <path id="ArialMT-63" d="M 2588 1216 
L 3141 1144 
Q 3050 572 2676 248 
Q 2303 -75 1759 -75 
Q 1078 -75 664 370 
Q 250 816 250 1647 
Q 250 2184 428 2587 
Q 606 2991 970 3192 
Q 1334 3394 1763 3394 
Q 2303 3394 2647 3120 
Q 2991 2847 3088 2344 
L 2541 2259 
Q 2463 2594 2264 2762 
Q 2066 2931 1784 2931 
Q 1359 2931 1093 2626 
Q 828 2322 828 1663 
Q 828 994 1084 691 
Q 1341 388 1753 388 
Q 2084 388 2306 591 
Q 2528 794 2588 1216 
z
" transform="scale(0.015625)"/>
       <path id="ArialMT-79" d="M 397 -1278 
L 334 -750 
Q 519 -800 656 -800 
Q 844 -800 956 -737 
Q 1069 -675 1141 -563 
Q 1194 -478 1313 -144 
Q 1328 -97 1363 -6 
L 103 3319 
L 709 3319 
L 1400 1397 
Q 1534 1031 1641 628 
Q 1738 1016 1872 1384 
L 2581 3319 
L 3144 3319 
L 1881 -56 
Q 1678 -603 1566 -809 
Q 1416 -1088 1222 -1217 
Q 1028 -1347 759 -1347 
Q 597 -1347 397 -1278 
z
" transform="scale(0.015625)"/>
      </defs>
      <use xlink:href="#ArialMT-46"/>
      <use xlink:href="#ArialMT-72" x="61.083984"/>
      <use xlink:href="#ArialMT-65" x="94.384766"/>
      <use xlink:href="#ArialMT-71" x="150"/>
      <use xlink:href="#ArialMT-75" x="205.615234"/>
      <use xlink:href="#ArialMT-65" x="261.230469"/>
      <use xlink:href="#ArialMT-6e" x="316.845703"/>
      <use xlink:href="#ArialMT-63" x="372.460938"/>
      <use xlink:href="#ArialMT-79" x="422.460938"/>
     </g>
    </g>
   </g>
   <g id="patch_3">
    <path d="M 186.804878 384.48 
L 193.609756 384.48 
L 193.609756 358.08 
L 186.804878 358.08 
z
" clip-path="url(#p77a978f18d)" style="fill: #4c72b0; stroke: #ffffff; stroke-linejoin: miter"/>
   </g>
   <g id="patch_4">
    <path d="M 214.02439 384.48 
L 220.829268 384.48 
L 220.829268 331.68 
L 214.02439 331.68 
z
" clip-path="url(#p77a978f18d)" style="fill: #4c72b0; stroke: #ffffff; stroke-linejoin: miter"/>
   </g>
   <g id="patch_5">
    <path d="M 241.243902 384.48 
L 248.04878 384.48 
L 248.04878 331.68 
L 241.243902 331.68 
z
" clip-path="url(#p77a978f18d)" style="fill: #4c72b0; stroke: #ffffff; stroke-linejoin: miter"/>
   </g>
   <g id="patch_6">
    <path d="M 268.463415 384.48 
L 275.268293 384.48 
L 275.268293 331.68 
L 268.463415 331.68 
z
" clip-path="url(#p77a978f18d)" style="fill: #4c72b0; stroke: #ffffff; stroke-linejoin: miter"/>
   </g>
   <g id="patch_7">
    <path d="M 295.682927 384.48 
L 302.487805 384.48 
L 302.487805 384.48 
L 295.682927 384.48 
z
" clip-path="url(#p77a978f18d)" style="fill: #4c72b0; stroke: #ffffff; stroke-linejoin: miter"/>
   </g>
   <g id="patch_8">
    <path d="M 322.902439 384.48 
L 329.707317 384.48 
L 329.707317 305.28 
L 322.902439 305.28 
z
" clip-path="url(#p77a978f18d)" style="fill: #4c72b0; stroke: #ffffff; stroke-linejoin: miter"/>
   </g>
   <g id="patch_9">
    <path d="M 350.121951 384.48 
L 356.926829 384.48 
L 356.926829 358.08 
L 350.121951 358.08 
z
" clip-path="url(#p77a978f18d)" style="fill: #4c72b0; stroke: #ffffff; stroke-linejoin: miter"/>
   </g>
   <g id="patch_10">
    <path d="M 377.341463 384.48 
L 384.146341 384.48 
L 384.146341 146.88 
L 377.341463 146.88 
z
" clip-path="url(#p77a978f18d)" style="fill: #4c72b0; stroke: #ffffff; stroke-linejoin: miter"/>
   </g>
   <g id="patch_11">
    <path d="M 404.560976 384.48 
L 411.365854 384.48 
L 411.365854 199.68 
L 404.560976 199.68 
z
" clip-path="url(#p77a978f18d)" style="fill: #4c72b0; stroke: #ffffff; stroke-linejoin: miter"/>
   </g>
   <g id="patch_12">
    <path d="M 431.780488 384.48 
L 438.585366 384.48 
L 438.585366 252.48 
L 431.780488 252.48 
z
" clip-path="url(#p77a978f18d)" style="fill: #4c72b0; stroke: #ffffff; stroke-linejoin: miter"/>
   </g>
   <g id="patch_13">
    <path d="M 459 384.48 
L 465.804878 384.48 
L 465.804878 173.28 
L 459 173.28 
z
" clip-path="url(#p77a978f18d)" style="fill: #4c72b0; stroke: #ffffff; stroke-linejoin: miter"/>
   </g>
   <g id="patch_14">
    <path d="M 486.219512 384.48 
L 493.02439 384.48 
L 493.02439 226.08 
L 486.219512 226.08 
z
" clip-path="url(#p77a978f18d)" style="fill: #4c72b0; stroke: #ffffff; stroke-linejoin: miter"/>
   </g>
   <g id="patch_15">
    <path d="M 513.439024 384.48 
L 520.243902 384.48 
L 520.243902 278.88 
L 513.439024 278.88 
z
" clip-path="url(#p77a978f18d)" style="fill: #4c72b0; stroke: #ffffff; stroke-linejoin: miter"/>
   </g>
   <g id="patch_16">
    <path d="M 540.658537 384.48 
L 547.463415 384.48 
L 547.463415 305.28 
L 540.658537 305.28 
z
" clip-path="url(#p77a978f18d)" style="fill: #4c72b0; stroke: #ffffff; stroke-linejoin: miter"/>
   </g>
   <g id="patch_17">
    <path d="M 567.878049 384.48 
L 574.682927 384.48 
L 574.682927 278.88 
L 567.878049 278.88 
z
" clip-path="url(#p77a978f18d)" style="fill: #4c72b0; stroke: #ffffff; stroke-linejoin: miter"/>
   </g>
   <g id="patch_18">
    <path d="M 595.097561 384.48 
L 601.902439 384.48 
L 601.902439 305.28 
L 595.097561 305.28 
z
" clip-path="url(#p77a978f18d)" style="fill: #4c72b0; stroke: #ffffff; stroke-linejoin: miter"/>
   </g>
   <g id="patch_19">
    <path d="M 622.317073 384.48 
L 629.121951 384.48 
L 629.121951 278.88 
L 622.317073 278.88 
z
" clip-path="url(#p77a978f18d)" style="fill: #4c72b0; stroke: #ffffff; stroke-linejoin: miter"/>
   </g>
   <g id="patch_20">
    <path d="M 649.536585 384.48 
L 656.341463 384.48 
L 656.341463 146.88 
L 649.536585 146.88 
z
" clip-path="url(#p77a978f18d)" style="fill: #4c72b0; stroke: #ffffff; stroke-linejoin: miter"/>
   </g>
   <g id="patch_21">
    <path d="M 676.756098 384.48 
L 683.560976 384.48 
L 683.560976 173.28 
L 676.756098 173.28 
z
" clip-path="url(#p77a978f18d)" style="fill: #4c72b0; stroke: #ffffff; stroke-linejoin: miter"/>
   </g>
   <g id="patch_22">
    <path d="M 703.97561 384.48 
L 710.780488 384.48 
L 710.780488 252.48 
L 703.97561 252.48 
z
" clip-path="url(#p77a978f18d)" style="fill: #4c72b0; stroke: #ffffff; stroke-linejoin: miter"/>
   </g>
   <g id="patch_23">
    <path d="M 731.195122 384.48 
L 738 384.48 
L 738 120.48 
L 731.195122 120.48 
z
" clip-path="url(#p77a978f18d)" style="fill: #4c72b0; stroke: #ffffff; stroke-linejoin: miter"/>
   </g>
   <g id="patch_24">
    <path d="M 758.414634 384.48 
L 765.219512 384.48 
L 765.219512 305.28 
L 758.414634 305.28 
z
" clip-path="url(#p77a978f18d)" style="fill: #4c72b0; stroke: #ffffff; stroke-linejoin: miter"/>
   </g>
   <g id="patch_25">
    <path d="M 785.634146 384.48 
L 792.439024 384.48 
L 792.439024 252.48 
L 785.634146 252.48 
z
" clip-path="url(#p77a978f18d)" style="fill: #4c72b0; stroke: #ffffff; stroke-linejoin: miter"/>
   </g>
   <g id="patch_26">
    <path d="M 812.853659 384.48 
L 819.658537 384.48 
L 819.658537 199.68 
L 812.853659 199.68 
z
" clip-path="url(#p77a978f18d)" style="fill: #4c72b0; stroke: #ffffff; stroke-linejoin: miter"/>
   </g>
   <g id="patch_27">
    <path d="M 840.073171 384.48 
L 846.878049 384.48 
L 846.878049 226.08 
L 840.073171 226.08 
z
" clip-path="url(#p77a978f18d)" style="fill: #4c72b0; stroke: #ffffff; stroke-linejoin: miter"/>
   </g>
   <g id="patch_28">
    <path d="M 867.292683 384.48 
L 874.097561 384.48 
L 874.097561 252.48 
L 867.292683 252.48 
z
" clip-path="url(#p77a978f18d)" style="fill: #4c72b0; stroke: #ffffff; stroke-linejoin: miter"/>
   </g>
   <g id="patch_29">
    <path d="M 894.512195 384.48 
L 901.317073 384.48 
L 901.317073 305.28 
L 894.512195 305.28 
z
" clip-path="url(#p77a978f18d)" style="fill: #4c72b0; stroke: #ffffff; stroke-linejoin: miter"/>
   </g>
   <g id="patch_30">
    <path d="M 921.731707 384.48 
L 928.536585 384.48 
L 928.536585 358.08 
L 921.731707 358.08 
z
" clip-path="url(#p77a978f18d)" style="fill: #4c72b0; stroke: #ffffff; stroke-linejoin: miter"/>
   </g>
   <g id="patch_31">
    <path d="M 948.95122 384.48 
L 955.756098 384.48 
L 955.756098 278.88 
L 948.95122 278.88 
z
" clip-path="url(#p77a978f18d)" style="fill: #4c72b0; stroke: #ffffff; stroke-linejoin: miter"/>
   </g>
   <g id="patch_32">
    <path d="M 976.170732 384.48 
L 982.97561 384.48 
L 982.97561 305.28 
L 976.170732 305.28 
z
" clip-path="url(#p77a978f18d)" style="fill: #4c72b0; stroke: #ffffff; stroke-linejoin: miter"/>
   </g>
   <g id="patch_33">
    <path d="M 1003.390244 384.48 
L 1010.195122 384.48 
L 1010.195122 226.08 
L 1003.390244 226.08 
z
" clip-path="url(#p77a978f18d)" style="fill: #4c72b0; stroke: #ffffff; stroke-linejoin: miter"/>
   </g>
   <g id="patch_34">
    <path d="M 1030.609756 384.48 
L 1037.414634 384.48 
L 1037.414634 278.88 
L 1030.609756 278.88 
z
" clip-path="url(#p77a978f18d)" style="fill: #4c72b0; stroke: #ffffff; stroke-linejoin: miter"/>
   </g>
   <g id="patch_35">
    <path d="M 1057.829268 384.48 
L 1064.634146 384.48 
L 1064.634146 278.88 
L 1057.829268 278.88 
z
" clip-path="url(#p77a978f18d)" style="fill: #4c72b0; stroke: #ffffff; stroke-linejoin: miter"/>
   </g>
   <g id="patch_36">
    <path d="M 1085.04878 384.48 
L 1091.853659 384.48 
L 1091.853659 305.28 
L 1085.04878 305.28 
z
" clip-path="url(#p77a978f18d)" style="fill: #4c72b0; stroke: #ffffff; stroke-linejoin: miter"/>
   </g>
   <g id="patch_37">
    <path d="M 1112.268293 384.48 
L 1119.073171 384.48 
L 1119.073171 331.68 
L 1112.268293 331.68 
z
" clip-path="url(#p77a978f18d)" style="fill: #4c72b0; stroke: #ffffff; stroke-linejoin: miter"/>
   </g>
   <g id="patch_38">
    <path d="M 1139.487805 384.48 
L 1146.292683 384.48 
L 1146.292683 331.68 
L 1139.487805 331.68 
z
" clip-path="url(#p77a978f18d)" style="fill: #4c72b0; stroke: #ffffff; stroke-linejoin: miter"/>
   </g>
   <g id="patch_39">
    <path d="M 1166.707317 384.48 
L 1173.512195 384.48 
L 1173.512195 358.08 
L 1166.707317 358.08 
z
" clip-path="url(#p77a978f18d)" style="fill: #4c72b0; stroke: #ffffff; stroke-linejoin: miter"/>
   </g>
   <g id="patch_40">
    <path d="M 1193.926829 384.48 
L 1200.731707 384.48 
L 1200.731707 305.28 
L 1193.926829 305.28 
z
" clip-path="url(#p77a978f18d)" style="fill: #4c72b0; stroke: #ffffff; stroke-linejoin: miter"/>
   </g>
   <g id="patch_41">
    <path d="M 1221.146341 384.48 
L 1227.95122 384.48 
L 1227.95122 358.08 
L 1221.146341 358.08 
z
" clip-path="url(#p77a978f18d)" style="fill: #4c72b0; stroke: #ffffff; stroke-linejoin: miter"/>
   </g>
   <g id="patch_42">
    <path d="M 1248.365854 384.48 
L 1255.170732 384.48 
L 1255.170732 358.08 
L 1248.365854 358.08 
z
" clip-path="url(#p77a978f18d)" style="fill: #4c72b0; stroke: #ffffff; stroke-linejoin: miter"/>
   </g>
   <g id="patch_43">
    <path d="M 1275.585366 384.48 
L 1282.390244 384.48 
L 1282.390244 384.48 
L 1275.585366 384.48 
z
" clip-path="url(#p77a978f18d)" style="fill: #4c72b0; stroke: #ffffff; stroke-linejoin: miter"/>
   </g>
   <g id="patch_44">
    <path d="M 193.609756 384.48 
L 200.414634 384.48 
L 200.414634 384.48 
L 193.609756 384.48 
z
" clip-path="url(#p77a978f18d)" style="fill: #dd8452; stroke: #ffffff; stroke-linejoin: miter"/>
   </g>
   <g id="patch_45">
    <path d="M 220.829268 384.48 
L 227.634146 384.48 
L 227.634146 384.48 
L 220.829268 384.48 
z
" clip-path="url(#p77a978f18d)" style="fill: #dd8452; stroke: #ffffff; stroke-linejoin: miter"/>
   </g>
   <g id="patch_46">
    <path d="M 248.04878 384.48 
L 254.853659 384.48 
L 254.853659 331.68 
L 248.04878 331.68 
z
" clip-path="url(#p77a978f18d)" style="fill: #dd8452; stroke: #ffffff; stroke-linejoin: miter"/>
   </g>
   <g id="patch_47">
    <path d="M 275.268293 384.48 
L 282.073171 384.48 
L 282.073171 384.48 
L 275.268293 384.48 
z
" clip-path="url(#p77a978f18d)" style="fill: #dd8452; stroke: #ffffff; stroke-linejoin: miter"/>
   </g>
   <g id="patch_48">
    <path d="M 302.487805 384.48 
L 309.292683 384.48 
L 309.292683 358.08 
L 302.487805 358.08 
z
" clip-path="url(#p77a978f18d)" style="fill: #dd8452; stroke: #ffffff; stroke-linejoin: miter"/>
   </g>
   <g id="patch_49">
    <path d="M 329.707317 384.48 
L 336.512195 384.48 
L 336.512195 358.08 
L 329.707317 358.08 
z
" clip-path="url(#p77a978f18d)" style="fill: #dd8452; stroke: #ffffff; stroke-linejoin: miter"/>
   </g>
   <g id="patch_50">
    <path d="M 356.926829 384.48 
L 363.731707 384.48 
L 363.731707 331.68 
L 356.926829 331.68 
z
" clip-path="url(#p77a978f18d)" style="fill: #dd8452; stroke: #ffffff; stroke-linejoin: miter"/>
   </g>
   <g id="patch_51">
    <path d="M 384.146341 384.48 
L 390.95122 384.48 
L 390.95122 358.08 
L 384.146341 358.08 
z
" clip-path="url(#p77a978f18d)" style="fill: #dd8452; stroke: #ffffff; stroke-linejoin: miter"/>
   </g>
   <g id="patch_52">
    <path d="M 411.365854 384.48 
L 418.170732 384.48 
L 418.170732 358.08 
L 411.365854 358.08 
z
" clip-path="url(#p77a978f18d)" style="fill: #dd8452; stroke: #ffffff; stroke-linejoin: miter"/>
   </g>
   <g id="patch_53">
    <path d="M 438.585366 384.48 
L 445.390244 384.48 
L 445.390244 331.68 
L 438.585366 331.68 
z
" clip-path="url(#p77a978f18d)" style="fill: #dd8452; stroke: #ffffff; stroke-linejoin: miter"/>
   </g>
   <g id="patch_54">
    <path d="M 465.804878 384.48 
L 472.609756 384.48 
L 472.609756 305.28 
L 465.804878 305.28 
z
" clip-path="url(#p77a978f18d)" style="fill: #dd8452; stroke: #ffffff; stroke-linejoin: miter"/>
   </g>
   <g id="patch_55">
    <path d="M 493.02439 384.48 
L 499.829268 384.48 
L 499.829268 331.68 
L 493.02439 331.68 
z
" clip-path="url(#p77a978f18d)" style="fill: #dd8452; stroke: #ffffff; stroke-linejoin: miter"/>
   </g>
   <g id="patch_56">
    <path d="M 520.243902 384.48 
L 527.04878 384.48 
L 527.04878 305.28 
L 520.243902 305.28 
z
" clip-path="url(#p77a978f18d)" style="fill: #dd8452; stroke: #ffffff; stroke-linejoin: miter"/>
   </g>
   <g id="patch_57">
    <path d="M 547.463415 384.48 
L 554.268293 384.48 
L 554.268293 331.68 
L 547.463415 331.68 
z
" clip-path="url(#p77a978f18d)" style="fill: #dd8452; stroke: #ffffff; stroke-linejoin: miter"/>
   </g>
   <g id="patch_58">
    <path d="M 574.682927 384.48 
L 581.487805 384.48 
L 581.487805 305.28 
L 574.682927 305.28 
z
" clip-path="url(#p77a978f18d)" style="fill: #dd8452; stroke: #ffffff; stroke-linejoin: miter"/>
   </g>
   <g id="patch_59">
    <path d="M 601.902439 384.48 
L 608.707317 384.48 
L 608.707317 331.68 
L 601.902439 331.68 
z
" clip-path="url(#p77a978f18d)" style="fill: #dd8452; stroke: #ffffff; stroke-linejoin: miter"/>
   </g>
   <g id="patch_60">
    <path d="M 629.121951 384.48 
L 635.926829 384.48 
L 635.926829 305.28 
L 629.121951 305.28 
z
" clip-path="url(#p77a978f18d)" style="fill: #dd8452; stroke: #ffffff; stroke-linejoin: miter"/>
   </g>
   <g id="patch_61">
    <path d="M 656.341463 384.48 
L 663.146341 384.48 
L 663.146341 305.28 
L 656.341463 305.28 
z
" clip-path="url(#p77a978f18d)" style="fill: #dd8452; stroke: #ffffff; stroke-linejoin: miter"/>
   </g>
   <g id="patch_62">
    <path d="M 683.560976 384.48 
L 690.365854 384.48 
L 690.365854 305.28 
L 683.560976 305.28 
z
" clip-path="url(#p77a978f18d)" style="fill: #dd8452; stroke: #ffffff; stroke-linejoin: miter"/>
   </g>
   <g id="patch_63">
    <path d="M 710.780488 384.48 
L 717.585366 384.48 
L 717.585366 331.68 
L 710.780488 331.68 
z
" clip-path="url(#p77a978f18d)" style="fill: #dd8452; stroke: #ffffff; stroke-linejoin: miter"/>
   </g>
   <g id="patch_64">
    <path d="M 738 384.48 
L 744.804878 384.48 
L 744.804878 226.08 
L 738 226.08 
z
" clip-path="url(#p77a978f18d)" style="fill: #dd8452; stroke: #ffffff; stroke-linejoin: miter"/>
   </g>
   <g id="patch_65">
    <path d="M 765.219512 384.48 
L 772.02439 384.48 
L 772.02439 252.48 
L 765.219512 252.48 
z
" clip-path="url(#p77a978f18d)" style="fill: #dd8452; stroke: #ffffff; stroke-linejoin: miter"/>
   </g>
   <g id="patch_66">
    <path d="M 792.439024 384.48 
L 799.243902 384.48 
L 799.243902 226.08 
L 792.439024 226.08 
z
" clip-path="url(#p77a978f18d)" style="fill: #dd8452; stroke: #ffffff; stroke-linejoin: miter"/>
   </g>
   <g id="patch_67">
    <path d="M 819.658537 384.48 
L 826.463415 384.48 
L 826.463415 120.48 
L 819.658537 120.48 
z
" clip-path="url(#p77a978f18d)" style="fill: #dd8452; stroke: #ffffff; stroke-linejoin: miter"/>
   </g>
   <g id="patch_68">
    <path d="M 846.878049 384.48 
L 853.682927 384.48 
L 853.682927 67.68 
L 846.878049 67.68 
z
" clip-path="url(#p77a978f18d)" style="fill: #dd8452; stroke: #ffffff; stroke-linejoin: miter"/>
   </g>
   <g id="patch_69">
    <path d="M 874.097561 384.48 
L 880.902439 384.48 
L 880.902439 146.88 
L 874.097561 146.88 
z
" clip-path="url(#p77a978f18d)" style="fill: #dd8452; stroke: #ffffff; stroke-linejoin: miter"/>
   </g>
   <g id="patch_70">
    <path d="M 901.317073 384.48 
L 908.121951 384.48 
L 908.121951 146.88 
L 901.317073 146.88 
z
" clip-path="url(#p77a978f18d)" style="fill: #dd8452; stroke: #ffffff; stroke-linejoin: miter"/>
   </g>
   <g id="patch_71">
    <path d="M 928.536585 384.48 
L 935.341463 384.48 
L 935.341463 199.68 
L 928.536585 199.68 
z
" clip-path="url(#p77a978f18d)" style="fill: #dd8452; stroke: #ffffff; stroke-linejoin: miter"/>
   </g>
   <g id="patch_72">
    <path d="M 955.756098 384.48 
L 962.560976 384.48 
L 962.560976 199.68 
L 955.756098 199.68 
z
" clip-path="url(#p77a978f18d)" style="fill: #dd8452; stroke: #ffffff; stroke-linejoin: miter"/>
   </g>
   <g id="patch_73">
    <path d="M 982.97561 384.48 
L 989.780488 384.48 
L 989.780488 226.08 
L 982.97561 226.08 
z
" clip-path="url(#p77a978f18d)" style="fill: #dd8452; stroke: #ffffff; stroke-linejoin: miter"/>
   </g>
   <g id="patch_74">
    <path d="M 1010.195122 384.48 
L 1017 384.48 
L 1017 278.88 
L 1010.195122 278.88 
z
" clip-path="url(#p77a978f18d)" style="fill: #dd8452; stroke: #ffffff; stroke-linejoin: miter"/>
   </g>
   <g id="patch_75">
    <path d="M 1037.414634 384.48 
L 1044.219512 384.48 
L 1044.219512 278.88 
L 1037.414634 278.88 
z
" clip-path="url(#p77a978f18d)" style="fill: #dd8452; stroke: #ffffff; stroke-linejoin: miter"/>
   </g>
   <g id="patch_76">
    <path d="M 1064.634146 384.48 
L 1071.439024 384.48 
L 1071.439024 305.28 
L 1064.634146 305.28 
z
" clip-path="url(#p77a978f18d)" style="fill: #dd8452; stroke: #ffffff; stroke-linejoin: miter"/>
   </g>
   <g id="patch_77">
    <path d="M 1091.853659 384.48 
L 1098.658537 384.48 
L 1098.658537 226.08 
L 1091.853659 226.08 
z
" clip-path="url(#p77a978f18d)" style="fill: #dd8452; stroke: #ffffff; stroke-linejoin: miter"/>
   </g>
   <g id="patch_78">
    <path d="M 1119.073171 384.48 
L 1125.878049 384.48 
L 1125.878049 331.68 
L 1119.073171 331.68 
z
" clip-path="url(#p77a978f18d)" style="fill: #dd8452; stroke: #ffffff; stroke-linejoin: miter"/>
   </g>
   <g id="patch_79">
    <path d="M 1146.292683 384.48 
L 1153.097561 384.48 
L 1153.097561 358.08 
L 1146.292683 358.08 
z
" clip-path="url(#p77a978f18d)" style="fill: #dd8452; stroke: #ffffff; stroke-linejoin: miter"/>
   </g>
   <g id="patch_80">
    <path d="M 1173.512195 384.48 
L 1180.317073 384.48 
L 1180.317073 305.28 
L 1173.512195 305.28 
z
" clip-path="url(#p77a978f18d)" style="fill: #dd8452; stroke: #ffffff; stroke-linejoin: miter"/>
   </g>
   <g id="patch_81">
    <path d="M 1200.731707 384.48 
L 1207.536585 384.48 
L 1207.536585 384.48 
L 1200.731707 384.48 
z
" clip-path="url(#p77a978f18d)" style="fill: #dd8452; stroke: #ffffff; stroke-linejoin: miter"/>
   </g>
   <g id="patch_82">
    <path d="M 1227.95122 384.48 
L 1234.756098 384.48 
L 1234.756098 384.48 
L 1227.95122 384.48 
z
" clip-path="url(#p77a978f18d)" style="fill: #dd8452; stroke: #ffffff; stroke-linejoin: miter"/>
   </g>
   <g id="patch_83">
    <path d="M 1255.170732 384.48 
L 1261.97561 384.48 
L 1261.97561 384.48 
L 1255.170732 384.48 
z
" clip-path="url(#p77a978f18d)" style="fill: #dd8452; stroke: #ffffff; stroke-linejoin: miter"/>
   </g>
   <g id="patch_84">
    <path d="M 1282.390244 384.48 
L 1289.195122 384.48 
L 1289.195122 358.08 
L 1282.390244 358.08 
z
" clip-path="url(#p77a978f18d)" style="fill: #dd8452; stroke: #ffffff; stroke-linejoin: miter"/>
   </g>
   <g id="patch_85">
    <path d="M 180 384.48 
L 180 51.84 
" style="fill: none; stroke: #ffffff; stroke-width: 1.25; stroke-linejoin: miter; stroke-linecap: square"/>
   </g>
   <g id="patch_86">
    <path d="M 1296 384.48 
L 1296 51.84 
" style="fill: none; stroke: #ffffff; stroke-width: 1.25; stroke-linejoin: miter; stroke-linecap: square"/>
   </g>
   <g id="patch_87">
    <path d="M 180 384.48 
L 1296 384.48 
" style="fill: none; stroke: #ffffff; stroke-width: 1.25; stroke-linejoin: miter; stroke-linecap: square"/>
   </g>
   <g id="patch_88">
    <path d="M 180 51.84 
L 1296 51.84 
" style="fill: none; stroke: #ffffff; stroke-width: 1.25; stroke-linejoin: miter; stroke-linecap: square"/>
   </g>
   <g id="text_51">
    <!-- Heart Disease v/s Age -->
    <g style="fill: #262626" transform="translate(639.067188 45.84) scale(0.2 -0.2)">
     <defs>
      <path id="ArialMT-48" d="M 513 0 
L 513 4581 
L 1119 4581 
L 1119 2700 
L 3500 2700 
L 3500 4581 
L 4106 4581 
L 4106 0 
L 3500 0 
L 3500 2159 
L 1119 2159 
L 1119 0 
L 513 0 
z
" transform="scale(0.015625)"/>
      <path id="ArialMT-61" d="M 2588 409 
Q 2275 144 1986 34 
Q 1697 -75 1366 -75 
Q 819 -75 525 192 
Q 231 459 231 875 
Q 231 1119 342 1320 
Q 453 1522 633 1644 
Q 813 1766 1038 1828 
Q 1203 1872 1538 1913 
Q 2219 1994 2541 2106 
Q 2544 2222 2544 2253 
Q 2544 2597 2384 2738 
Q 2169 2928 1744 2928 
Q 1347 2928 1158 2789 
Q 969 2650 878 2297 
L 328 2372 
Q 403 2725 575 2942 
Q 747 3159 1072 3276 
Q 1397 3394 1825 3394 
Q 2250 3394 2515 3294 
Q 2781 3194 2906 3042 
Q 3031 2891 3081 2659 
Q 3109 2516 3109 2141 
L 3109 1391 
Q 3109 606 3145 398 
Q 3181 191 3288 0 
L 2700 0 
Q 2613 175 2588 409 
z
M 2541 1666 
Q 2234 1541 1622 1453 
Q 1275 1403 1131 1340 
Q 988 1278 909 1158 
Q 831 1038 831 891 
Q 831 666 1001 516 
Q 1172 366 1500 366 
Q 1825 366 2078 508 
Q 2331 650 2450 897 
Q 2541 1088 2541 1459 
L 2541 1666 
z
" transform="scale(0.015625)"/>
      <path id="ArialMT-74" d="M 1650 503 
L 1731 6 
Q 1494 -44 1306 -44 
Q 1000 -44 831 53 
Q 663 150 594 308 
Q 525 466 525 972 
L 525 2881 
L 113 2881 
L 113 3319 
L 525 3319 
L 525 4141 
L 1084 4478 
L 1084 3319 
L 1650 3319 
L 1650 2881 
L 1084 2881 
L 1084 941 
Q 1084 700 1114 631 
Q 1144 563 1211 522 
Q 1278 481 1403 481 
Q 1497 481 1650 503 
z
" transform="scale(0.015625)"/>
      <path id="ArialMT-20" transform="scale(0.015625)"/>
      <path id="ArialMT-44" d="M 494 0 
L 494 4581 
L 2072 4581 
Q 2606 4581 2888 4516 
Q 3281 4425 3559 4188 
Q 3922 3881 4101 3404 
Q 4281 2928 4281 2316 
Q 4281 1794 4159 1391 
Q 4038 988 3847 723 
Q 3656 459 3429 307 
Q 3203 156 2883 78 
Q 2563 0 2147 0 
L 494 0 
z
M 1100 541 
L 2078 541 
Q 2531 541 2789 625 
Q 3047 709 3200 863 
Q 3416 1078 3536 1442 
Q 3656 1806 3656 2325 
Q 3656 3044 3420 3430 
Q 3184 3816 2847 3947 
Q 2603 4041 2063 4041 
L 1100 4041 
L 1100 541 
z
" transform="scale(0.015625)"/>
      <path id="ArialMT-69" d="M 425 3934 
L 425 4581 
L 988 4581 
L 988 3934 
L 425 3934 
z
M 425 0 
L 425 3319 
L 988 3319 
L 988 0 
L 425 0 
z
" transform="scale(0.015625)"/>
      <path id="ArialMT-73" d="M 197 991 
L 753 1078 
Q 800 744 1014 566 
Q 1228 388 1613 388 
Q 2000 388 2187 545 
Q 2375 703 2375 916 
Q 2375 1106 2209 1216 
Q 2094 1291 1634 1406 
Q 1016 1563 777 1677 
Q 538 1791 414 1992 
Q 291 2194 291 2438 
Q 291 2659 392 2848 
Q 494 3038 669 3163 
Q 800 3259 1026 3326 
Q 1253 3394 1513 3394 
Q 1903 3394 2198 3281 
Q 2494 3169 2634 2976 
Q 2775 2784 2828 2463 
L 2278 2388 
Q 2241 2644 2061 2787 
Q 1881 2931 1553 2931 
Q 1166 2931 1000 2803 
Q 834 2675 834 2503 
Q 834 2394 903 2306 
Q 972 2216 1119 2156 
Q 1203 2125 1616 2013 
Q 2213 1853 2448 1751 
Q 2684 1650 2818 1456 
Q 2953 1263 2953 975 
Q 2953 694 2789 445 
Q 2625 197 2315 61 
Q 2006 -75 1616 -75 
Q 969 -75 630 194 
Q 291 463 197 991 
z
" transform="scale(0.015625)"/>
      <path id="ArialMT-76" d="M 1344 0 
L 81 3319 
L 675 3319 
L 1388 1331 
Q 1503 1009 1600 663 
Q 1675 925 1809 1294 
L 2547 3319 
L 3125 3319 
L 1869 0 
L 1344 0 
z
" transform="scale(0.015625)"/>
      <path id="ArialMT-2f" d="M 0 -78 
L 1328 4659 
L 1778 4659 
L 453 -78 
L 0 -78 
z
" transform="scale(0.015625)"/>
     </defs>
     <use xlink:href="#ArialMT-48"/>
     <use xlink:href="#ArialMT-65" x="72.216797"/>
     <use xlink:href="#ArialMT-61" x="127.832031"/>
     <use xlink:href="#ArialMT-72" x="183.447266"/>
     <use xlink:href="#ArialMT-74" x="216.748047"/>
     <use xlink:href="#ArialMT-20" x="244.53125"/>
     <use xlink:href="#ArialMT-44" x="272.314453"/>
     <use xlink:href="#ArialMT-69" x="344.53125"/>
     <use xlink:href="#ArialMT-73" x="366.748047"/>
     <use xlink:href="#ArialMT-65" x="416.748047"/>
     <use xlink:href="#ArialMT-61" x="472.363281"/>
     <use xlink:href="#ArialMT-73" x="527.978516"/>
     <use xlink:href="#ArialMT-65" x="577.978516"/>
     <use xlink:href="#ArialMT-20" x="633.59375"/>
     <use xlink:href="#ArialMT-76" x="661.376953"/>
     <use xlink:href="#ArialMT-2f" x="711.376953"/>
     <use xlink:href="#ArialMT-73" x="739.160156"/>
     <use xlink:href="#ArialMT-20" x="789.160156"/>
     <use xlink:href="#ArialMT-41" x="811.443359"/>
     <use xlink:href="#ArialMT-67" x="878.142578"/>
     <use xlink:href="#ArialMT-65" x="933.757812"/>
    </g>
   </g>
   <g id="legend_1">
    <g id="patch_89">
     <path d="M 1124.692188 91.759687 
L 1288.3 91.759687 
Q 1290.5 91.759687 1290.5 89.559687 
L 1290.5 59.54 
Q 1290.5 57.34 1288.3 57.34 
L 1124.692188 57.34 
Q 1122.492188 57.34 1122.492188 59.54 
L 1122.492188 89.559687 
Q 1122.492188 91.759687 1124.692188 91.759687 
z
" style="fill: #eaeaf2; opacity: 0.8; stroke: #cccccc; stroke-linejoin: miter"/>
    </g>
    <g id="patch_90">
     <path d="M 1126.892188 69.613594 
L 1148.892188 69.613594 
L 1148.892188 61.913594 
L 1126.892188 61.913594 
z
" style="fill: #4c72b0; stroke: #ffffff; stroke-linejoin: miter"/>
    </g>
    <g id="text_52">
     <!-- Do not have heart disease -->
     <g style="fill: #262626" transform="translate(1157.692188 69.613594) scale(0.11 -0.11)">
      <defs>
       <path id="ArialMT-6f" d="M 213 1659 
Q 213 2581 725 3025 
Q 1153 3394 1769 3394 
Q 2453 3394 2887 2945 
Q 3322 2497 3322 1706 
Q 3322 1066 3130 698 
Q 2938 331 2570 128 
Q 2203 -75 1769 -75 
Q 1072 -75 642 372 
Q 213 819 213 1659 
z
M 791 1659 
Q 791 1022 1069 705 
Q 1347 388 1769 388 
Q 2188 388 2466 706 
Q 2744 1025 2744 1678 
Q 2744 2294 2464 2611 
Q 2184 2928 1769 2928 
Q 1347 2928 1069 2612 
Q 791 2297 791 1659 
z
" transform="scale(0.015625)"/>
       <path id="ArialMT-68" d="M 422 0 
L 422 4581 
L 984 4581 
L 984 2938 
Q 1378 3394 1978 3394 
Q 2347 3394 2619 3248 
Q 2891 3103 3008 2847 
Q 3125 2591 3125 2103 
L 3125 0 
L 2563 0 
L 2563 2103 
Q 2563 2525 2380 2717 
Q 2197 2909 1863 2909 
Q 1613 2909 1392 2779 
Q 1172 2650 1078 2428 
Q 984 2206 984 1816 
L 984 0 
L 422 0 
z
" transform="scale(0.015625)"/>
       <path id="ArialMT-64" d="M 2575 0 
L 2575 419 
Q 2259 -75 1647 -75 
Q 1250 -75 917 144 
Q 584 363 401 755 
Q 219 1147 219 1656 
Q 219 2153 384 2558 
Q 550 2963 881 3178 
Q 1213 3394 1622 3394 
Q 1922 3394 2156 3267 
Q 2391 3141 2538 2938 
L 2538 4581 
L 3097 4581 
L 3097 0 
L 2575 0 
z
M 797 1656 
Q 797 1019 1065 703 
Q 1334 388 1700 388 
Q 2069 388 2326 689 
Q 2584 991 2584 1609 
Q 2584 2291 2321 2609 
Q 2059 2928 1675 2928 
Q 1300 2928 1048 2622 
Q 797 2316 797 1656 
z
" transform="scale(0.015625)"/>
      </defs>
      <use xlink:href="#ArialMT-44"/>
      <use xlink:href="#ArialMT-6f" x="72.216797"/>
      <use xlink:href="#ArialMT-20" x="127.832031"/>
      <use xlink:href="#ArialMT-6e" x="155.615234"/>
      <use xlink:href="#ArialMT-6f" x="211.230469"/>
      <use xlink:href="#ArialMT-74" x="266.845703"/>
      <use xlink:href="#ArialMT-20" x="294.628906"/>
      <use xlink:href="#ArialMT-68" x="322.412109"/>
      <use xlink:href="#ArialMT-61" x="378.027344"/>
      <use xlink:href="#ArialMT-76" x="433.642578"/>
      <use xlink:href="#ArialMT-65" x="483.642578"/>
      <use xlink:href="#ArialMT-20" x="539.257812"/>
      <use xlink:href="#ArialMT-68" x="567.041016"/>
      <use xlink:href="#ArialMT-65" x="622.65625"/>
      <use xlink:href="#ArialMT-61" x="678.271484"/>
      <use xlink:href="#ArialMT-72" x="733.886719"/>
      <use xlink:href="#ArialMT-74" x="767.1875"/>
      <use xlink:href="#ArialMT-20" x="794.970703"/>
      <use xlink:href="#ArialMT-64" x="822.753906"/>
      <use xlink:href="#ArialMT-69" x="878.369141"/>
      <use xlink:href="#ArialMT-73" x="900.585938"/>
      <use xlink:href="#ArialMT-65" x="950.585938"/>
      <use xlink:href="#ArialMT-61" x="1006.201172"/>
      <use xlink:href="#ArialMT-73" x="1061.816406"/>
      <use xlink:href="#ArialMT-65" x="1111.816406"/>
     </g>
    </g>
    <g id="patch_91">
     <path d="M 1126.892188 85.173438 
L 1148.892188 85.173438 
L 1148.892188 77.473438 
L 1126.892188 77.473438 
z
" style="fill: #dd8452; stroke: #ffffff; stroke-linejoin: miter"/>
    </g>
    <g id="text_53">
     <!-- Have heart disease -->
     <g style="fill: #262626" transform="translate(1157.692188 85.173438) scale(0.11 -0.11)">
      <use xlink:href="#ArialMT-48"/>
      <use xlink:href="#ArialMT-61" x="72.216797"/>
      <use xlink:href="#ArialMT-76" x="127.832031"/>
      <use xlink:href="#ArialMT-65" x="177.832031"/>
      <use xlink:href="#ArialMT-20" x="233.447266"/>
      <use xlink:href="#ArialMT-68" x="261.230469"/>
      <use xlink:href="#ArialMT-65" x="316.845703"/>
      <use xlink:href="#ArialMT-61" x="372.460938"/>
      <use xlink:href="#ArialMT-72" x="428.076172"/>
      <use xlink:href="#ArialMT-74" x="461.376953"/>
      <use xlink:href="#ArialMT-20" x="489.160156"/>
      <use xlink:href="#ArialMT-64" x="516.943359"/>
      <use xlink:href="#ArialMT-69" x="572.558594"/>
      <use xlink:href="#ArialMT-73" x="594.775391"/>
      <use xlink:href="#ArialMT-65" x="644.775391"/>
      <use xlink:href="#ArialMT-61" x="700.390625"/>
      <use xlink:href="#ArialMT-73" x="756.005859"/>
      <use xlink:href="#ArialMT-65" x="806.005859"/>
     </g>
    </g>
   </g>
  </g>
 </g>
 <defs>
  <clipPath id="p77a978f18d">
   <rect x="180" y="51.84" width="1116" height="332.64"/>
  </clipPath>
 </defs>
</svg>
